PathFileType	4	(X/Y/Z)	C:\Users\Basilio\Documents\Thesis Gigler\squatting_fais\c3dfiles\019\SLS_front_pre5\markers_experimental.trc
DataRate	CameraRate	NumFrames	NumMarkers	Units	OrigDataRate	OrigDataStartFrame	OrigNumFrames
200.000000	200.000000	4	59	mm	200.000000	1148	1531
Frame#	Time	FHD			LBHD			RBHD			C7			T10			CLAV			LSHO			LUUPA			LMUPA			LDUPA			LLEP			LMEP			LRAD			LUL			LRFIN			RSHO			RUPA1			RMUPA			RDUPA			RLEP			RMEP			RRAD			RUL			RUFIN			LASI			RASI			USACR			LSACR			RSACR			LTHI1			LTHI2			LTHI3			LTHI4			LLFC			LTIB1			LTIB2			LTIB3			LTIB4			LLMAL			LMMAL			LHEE			LMT1			LMT2			LMT5			RTHI3			RTHI4			RLFC			RTIB1			RTIB2			RTIB3			RTIB4			RLMAL			RMMAL			RHEE			RMT1			RMT2			RMT5			RTHI			RTHI2			
		X1	Y1	Z1	X2	Y2	Z2	X3	Y3	Z3	X4	Y4	Z4	X5	Y5	Z5	X6	Y6	Z6	X7	Y7	Z7	X8	Y8	Z8	X9	Y9	Z9	X10	Y10	Z10	X11	Y11	Z11	X12	Y12	Z12	X13	Y13	Z13	X14	Y14	Z14	X15	Y15	Z15	X16	Y16	Z16	X17	Y17	Z17	X18	Y18	Z18	X19	Y19	Z19	X20	Y20	Z20	X21	Y21	Z21	X22	Y22	Z22	X23	Y23	Z23	X24	Y24	Z24	X25	Y25	Z25	X26	Y26	Z26	X27	Y27	Z27	X28	Y28	Z28	X29	Y29	Z29	X30	Y30	Z30	X31	Y31	Z31	X32	Y32	Z32	X33	Y33	Z33	X34	Y34	Z34	X35	Y35	Z35	X36	Y36	Z36	X37	Y37	Z37	X38	Y38	Z38	X39	Y39	Z39	X40	Y40	Z40	X41	Y41	Z41	X42	Y42	Z42	X43	Y43	Z43	X44	Y44	Z44	X45	Y45	Z45	X46	Y46	Z46	X47	Y47	Z47	X48	Y48	Z48	X49	Y49	Z49	X50	Y50	Z50	X51	Y51	Z51	X52	Y52	Z52	X53	Y53	Z53	X54	Y54	Z54	X55	Y55	Z55	X56	Y56	Z56	X57	Y57	Z57	X58	Y58	Z58	X59	Y59	Z59	

1149	5.74	-281.4797668457032	1724.389892578125	-626.5511474609376	-409.8062438964845	1680.164672851563	-766.7730712890626	-407.7243652343751	1670.616577148438	-626.8800659179689	-424.9009399414064	1513.852416992188	-691.0560913085939	-484.0350646972657	1230.6611328125	-694.4757080078126	-291.7413330078126	1467.345703125	-703.8247070312501	-355.7805480957032	1531.223266601563	-825.8598632812502	-233.2793579101563	1501.960327148438	-886.9856567382815	-207.0761108398438	1489.62353515625	-846.733093261719	-167.1490631103516	1495.17333984375	-890.608581542969	-99.18377685546878	1464.718139648438	-928.979187011719	-103.9856338500977	1405.634033203125	-919.4335937500002	149.9533233642578	1448.012573242188	-850.283142089844	147.1544494628907	1450.266235351563	-916.597351074219	224.5526275634766	1454.068237304688	-846.8760375976565	-336.0736083984376	1515.069702148438	-578.9862060546876	-217.1091461181641	1459.487670898438	-473.6071777343751	-193.4997253417969	1483.94580078125	-509.0628662109376	-147.9092407226563	1456.81591796875	-472.5256958007814	-72.77696228027345	1456.115356445313	-482.626678466797	-80.52439117431642	1395.651245117188	-493.3151855468751	165.0653991699219	1472.933837890625	-564.6366577148439	176.0760345458985	1481.406982421875	-499.3651733398439	251.7224121093751	1490.829345703125	-565.5548706054689	-365.5296325683594	1037.59765625	-829.2663574218752	-340.5013732910157	999.5310668945315	-627.8324584960939	-505.1359863281251	1093.594848632813	-703.6467285156251	-516.8535156250001	1065.5126953125	-734.6049804687501	-506.5874938964845	1059.331787109375	-678.5462036132814	-276.0086975097657	864.5676879882815	-922.8267822265627	-191.5141754150391	854.624450683594	-916.4460449218752	-170.3026580810547	892.3537597656252	-896.9956665039065	-160.2345733642578	802.127624511719	-912.8288574218752	-92.89651489257814	736.5207519531251	-894.4926757812502	-0.3277536034584046	622.9679565429689	-863.8614501953127	-47.81977081298829	564.6611328125001	-910.9357910156252	-10.24940586090088	571.3441772460939	-890.508972167969	8.788516998291017	494.7916870117189	-852.8822021484377	-24.78609275817872	353.7897644042969	-866.9058227539065	-7.7000789642334	368.2846374511719	-790.687683105469	-91.05372619628908	326.2272033691407	-811.8948364257815	127.2996597290039	291.4509887695313	-805.1511840820315	124.3317337036133	290.6557617187501	-841.532409667969	77.65054321289064	260.9305725097657	-884.7957763671877	-301.3708190917969	754.8712768554689	-604.1585693359376	-340.8804626464844	668.4399414062501	-585.5087890625001	-358.6792297363282	510.5893859863282	-630.8592529296876	-311.2361145019532	338.0958251953126	-705.0387573242189	-363.0955505371094	251.9455871582032	-657.4179077148439	-329.2321166992188	254.0045928955079	-689.4789428710939	-336.9941406250001	216.1102752685547	-734.5073852539064	-395.4496154785157	125.5254669189453	-700.6555175781251	-380.6351013183594	137.4824829101563	-775.8923339843752	-455.9737243652345	106.0312042236328	-755.5205078125001	-257.7176208496094	57.3496551513672	-775.556579589844	-253.7240142822266	60.98510360717775	-729.6434326171876	-294.8492736816407	49.2972755432129	-676.3634033203126	-372.2008666992188	794.082458496094	-569.6187744140626	-327.1111755371094	751.9205322265626	-582.5895996093751	
1150	5.745	-282.1246948242188	1724.818359375	-626.5093994140626	-410.602752685547	1680.648559570313	-766.5530395507814	-408.3087463378907	1670.972045898438	-626.6963500976564	-425.6510620117189	1513.934936523438	-690.8534545898439	-483.6820068359376	1230.58837890625	-694.2153320312501	-292.1670532226563	1467.732421875	-703.6488037109376	-355.9082946777344	1531.3671875	-825.0886840820315	-234.0426635742188	1502.1591796875	-887.0576782226565	-209.3383026123047	1490.072509765625	-847.3105468750002	-167.7202453613282	1495.388305664063	-890.6494750976565	-99.88964843750003	1464.84130859375	-929.0403442382815	-104.7663879394532	1405.798583984375	-919.4210205078127	149.2531127929688	1448.124877929688	-850.265808105469	145.8727111816407	1450.19482421875	-916.075622558594	223.7505035400391	1454.269897460938	-846.8952636718752	-336.5260925292969	1515.000610351563	-578.8087158203126	-217.5809020996094	1459.402465820313	-473.4265441894532	-194.0587921142579	1483.905517578125	-508.7545776367189	-148.4129638671875	1456.792602539063	-472.3728332519532	-73.38392639160158	1456.181518554688	-482.5783996582032	-81.00547790527345	1395.600219726563	-493.2634582519532	164.539779663086	1473.041381835938	-564.8889770507814	175.5679779052735	1481.42578125	-499.4868469238282	251.1829223632813	1490.740112304688	-566.0774536132814	-364.5109863281251	1037.827392578125	-829.1587524414065	-339.3753662109376	999.7982177734377	-627.7172851562501	-504.206756591797	1093.648681640625	-703.4624023437501	-516.0778808593751	1065.4560546875	-734.4418334960939	-505.6890563964845	1059.393798828125	-678.3449707031251	-275.0680847167969	864.8153076171877	-922.763610839844	-190.5284271240235	854.919616699219	-916.4360961914065	-169.3279571533203	892.555114746094	-896.8688964843752	-159.2654266357422	802.3391113281252	-912.8813476562502	-92.13745117187501	736.7553710937501	-894.6225585937502	0.3151032328605652	622.7584838867189	-863.9379882812502	-47.53458786010743	564.6909790039064	-911.0937500000002	-9.958235740661623	571.2063598632814	-890.6926879882815	8.829470634460451	494.565887451172	-853.0250244140627	-25.30880928039551	353.7619018554688	-867.010681152344	-8.154229164123537	368.1330871582032	-790.8507080078127	-91.70897674560548	326.4384765625001	-811.984313964844	126.6317596435547	290.8219604492188	-805.2133789062502	123.3280563354492	290.2430114746094	-841.874938964844	76.65489959716798	260.5351257324219	-885.0406494140627	-300.9880065917969	754.8265991210939	-604.1008300781251	-340.8785400390626	668.5288696289064	-585.5109863281251	-359.4396057128907	510.7209777832032	-630.8991699218751	-311.5998840332032	338.2129821777344	-705.0488891601564	-363.3551025390626	251.9654541015626	-657.4559936523439	-329.4266052246094	254.0518951416016	-689.5184326171876	-337.1660156250001	216.1788024902344	-734.5973510742189	-395.5006713867189	125.5296401977539	-700.6543579101564	-380.6667175292969	137.3992462158203	-775.8618164062502	-455.9747924804689	106.030632019043	-755.5181274414064	-257.7413024902344	57.29233932495119	-775.5546875000002	-253.7483520507813	60.99807739257814	-729.6347045898439	-294.8989257812501	49.28882217407228	-676.4179077148439	-371.6172790527344	794.2285156250002	-569.6113891601564	-325.8158874511719	752.0676879882814	-581.2985229492189	
1151	5.75	-282.6510925292969	1725.163452148438	-626.4324951171876	-411.1427001953126	1680.972778320313	-766.3708496093751	-408.8982849121095	1671.201049804688	-626.5358886718751	-426.1275024414064	1514.12353515625	-690.6121826171876	-483.3397521972657	1230.45849609375	-694.0011596679689	-292.6630859375001	1468.095947265625	-703.5437011718751	-357.0263671875001	1531.62939453125	-825.5471191406252	-234.7056884765626	1502.351684570313	-887.035827636719	-211.2936553955079	1489.621826171875	-847.8836059570315	-168.3759765625	1495.56591796875	-890.712829589844	-100.6325988769532	1465.055297851563	-929.119079589844	-105.5411529541016	1405.99951171875	-919.5251464843752	148.3429565429688	1448.31884765625	-850.1926269531252	145.6184387207032	1450.3056640625	-916.4563598632815	223.3314361572266	1454.2421875	-846.6888427734377	-337.1345520019532	1515.19140625	-578.6572265625001	-218.0598907470704	1459.3046875	-473.3306274414064	-194.4677124023438	1483.926025390625	-508.4715881347657	-148.8366088867188	1456.667236328125	-472.2417602539064	-73.8689422607422	1456.218017578125	-482.5686950683595	-81.40486907958986	1395.490478515625	-493.3089904785157	164.0544128417969	1473.123046875	-565.0131225585939	175.06689453125	1481.431640625	-499.6050415039064	250.7976837158204	1490.822387695313	-566.3306274414064	-363.5765686035157	1038.024291992188	-829.0605468750002	-338.4048156738282	999.9403076171877	-627.5860595703126	-503.5171508789064	1093.500244140625	-703.2850341796876	-515.1053466796876	1065.335205078125	-734.3144531250001	-505.0260620117189	1059.215209960938	-678.2197265625001	-273.9723510742188	864.9699707031252	-922.7294921875002	-189.4856567382813	855.0541992187502	-916.4092407226565	-168.2068786621094	892.6047363281252	-896.7810668945315	-158.2060852050782	802.5017089843752	-912.9434204101565	-91.36771392822267	736.8632202148439	-894.7095947265627	0.9587147831916811	622.5825195312501	-864.0816040039065	-47.26219940185548	564.7586669921876	-911.216003417969	-9.588483810424806	571.0638427734376	-890.8109130859377	8.779307365417482	494.465057373047	-853.119567871094	-25.86581993103028	353.7097778320313	-867.1317138671877	-8.676146507263185	367.9716796875001	-791.037048339844	-92.38624572753908	326.6777038574219	-812.103210449219	125.8855590820313	290.2652282714844	-805.6482543945315	122.6735000610352	289.4965820312501	-842.1569824218752	75.59824371337892	260.1926574707032	-885.2207031250002	-300.5870361328126	754.6590576171876	-604.0041503906251	-340.9520568847657	668.5609741210939	-585.5090942382814	-359.9179992675782	510.7427673339845	-630.9107666015626	-312.0027770996094	338.2922363281251	-705.0440063476564	-363.4971923828126	251.8838348388672	-657.4484863281251	-329.6543273925782	254.0144653320313	-689.5932006835939	-337.3807678222657	216.1902160644532	-734.5849609375001	-395.4824829101564	125.4429168701172	-700.6915893554689	-380.7555236816407	137.3711242675782	-775.9411621093752	-455.9547729492189	106.0378799438477	-755.5302734375001	-257.4643859863282	56.82391357421876	-775.5056152343752	-253.7261962890626	60.98946380615236	-729.6332397460939	-294.8347778320313	49.2845802307129	-676.3983764648439	-370.1854248046876	796.1358642578127	-564.2733154296876	-325.4266662597657	752.0639648437501	-581.1659545898439	
1152	5.755	-283.1596069335938	1725.654296875	-626.5869140625001	-411.4654235839845	1681.2119140625	-766.2445678710939	-409.4218139648439	1671.50146484375	-626.3507690429689	-426.8497009277345	1514.145874023438	-690.4388427734376	-482.9438781738282	1230.175415039063	-693.7971801757814	-293.0699768066407	1468.412719726563	-703.4368286132814	-357.7341918945313	1531.770263671875	-825.4562988281252	-235.3564605712891	1502.446655273438	-887.0379028320315	-210.7772979736329	1490.427612304688	-847.4343872070315	-168.9803161621094	1495.72021484375	-890.718688964844	-101.3253860473633	1465.168579101563	-929.182800292969	-106.227653503418	1406.084228515625	-919.529968261719	147.6495513916016	1448.423583984375	-850.1639404296877	144.8009338378907	1450.511108398438	-916.3970336914065	222.5786285400391	1454.216796875	-846.6234130859377	-337.5261535644532	1515.324584960938	-578.2089233398439	-218.5474395751954	1459.169311523438	-473.1696166992189	-194.9006652832032	1483.867553710938	-508.1440429687501	-149.3358001708985	1456.601806640625	-472.1575927734376	-74.36650848388673	1456.298706054688	-482.5630493164064	-82.16374969482423	1395.4853515625	-493.3267822265626	163.4756622314453	1473.124755859375	-565.2127685546876	174.5905456542969	1481.448608398438	-499.7835693359376	249.0769195556641	1491.106811523438	-566.1890869140626	-362.4874572753907	1038.165161132813	-828.895690917969	-337.5059204101563	1000.062316894531	-627.3958740234376	-502.7745056152345	1093.386840820313	-703.1721191406251	-514.3285522460939	1065.195190429688	-734.1629028320314	-504.359344482422	1059.146728515625	-678.1468505859376	-272.9160156250001	865.062194824219	-922.691589355469	-188.5097808837891	855.1575927734377	-916.448425292969	-167.145736694336	892.7254028320315	-896.7673339843752	-157.103744506836	802.5581054687502	-912.9483032226565	-90.23797607421876	736.9058837890626	-894.754333496094	1.394817709922791	622.3728637695314	-864.181335449219	-46.97994232177735	564.7933349609376	-911.2825927734377	-9.257391929626467	570.9208374023439	-890.9834594726565	8.811971664428713	494.2166137695314	-853.2913208007815	-26.3702621459961	353.6336059570313	-867.3624267578127	-9.146030426025392	367.8385620117188	-791.2351684570315	-93.04637908935548	326.7787475585938	-812.2410278320315	125.0995254516602	289.5543518066407	-806.0124511718752	121.9617691040039	288.7500000000001	-842.424743652344	74.55869293212892	259.8521423339844	-885.498474121094	-300.1977539062501	754.6253662109376	-603.8394165039064	-340.9010925292969	668.5629272460939	-585.4509277343751	-360.2792663574219	510.7378540039064	-630.8969726562501	-312.2488708496094	338.3803405761719	-705.0979003906251	-363.5841979980469	251.8645019531251	-657.6065673828126	-329.7839355468751	254.0485839843751	-689.6807861328126	-337.4759216308594	216.1814575195313	-734.7474365234376	-395.5151672363282	125.4180068969727	-700.7658081054689	-380.8077697753907	137.3030242919922	-776.0024414062502	-455.927459716797	106.0244293212891	-755.5520629882814	-257.4309082031251	56.74926757812501	-775.5066528320315	-253.7888183593751	60.98529052734376	-729.6874389648439	-294.8329162597657	49.32894134521486	-676.4119262695314	-370.6079406738282	794.5024414062502	-569.4268188476564	-325.0357055664063	751.9635009765626	-581.0423583984376	
